P1
240 72
1111111111111111111111111111111100111100111111111111111111111111111111
1111111111111111111111111100011111111111111111111111111111111111111001
1110011111111111111111111110011110011111111111000111111111111111111111
110011110011111111111111111111
1000011111111111111111111111111110000001111111111111111111111111111111
1111111111111111111111100011111111111111111111111110001111000111111100
0000111111111111111111111111000000111111111000111111111111111111111111
111000000111111111100001111111
0011001111111111111111111111111111111111111111111111111111111111111111
1111111111111111111111111111111111111111111111111111111111111111111111
1111111111111111111111111111111111111111111111111111111111111111111111
111111111111111111111111111111
0000001111111111111000011111111111111111111111000111111111111111111111
1111110001111000111111000000001111111100000000111111111111111111111000
0000011111110000000011111100000000000111100000000001111111111111111111
100000000001111100000000001111
0011001111111111110000001111111111111111111111000111111111111001111110
0111110001000111111100011111100011110001111111111111111111111111100011
1111000111000111111000111111110001111111111111110001111111111111111111
111111110001111111111110001111
0011001111111111100011000111111111111111111111000110011111111100000000
1111110001111111111100011111111111111100000011111111111111111111100011
1111111111000111111111111111110001111111111111100011111111111111111111
111111100011111111111100011111
1111111000011111000111100011111111111111111111000001111111111001111110
0111110001111111111111000000001111111001111000111111111111111111111000
0000011111110000000011111111110001111111111110001111111110000000011111
111110001111111111110001111111
1111110011001111000000000011111111111111111110000111111111111001111110
0111110001111111111111111111100011111000111100111111111111111111111111
1111000111111111111000111111110001111111111000111111111111111111111111
111000111111111111000111111111
1111110011001110001111110001111111111111111111000111111111111100000000
1111110001111111111100011111100011111110000001111111111111111111100011
1111000111000111111000111111110001111111100011111111111111111111111111
100011111111111100011111111111
1111110011001110001111110001111111111111111111000000000011111001111110
0111110000000000111111000000001111111111111100011111111111111111111000
0000011111110000000011111111110001111111100000000001111111111111111111
100000000001111100000000001111
1111111000011111111111000111111111111111111111111111111111111111111111
1111111111111111111111111111111111111000000001111111111111111111111111
1111111111111100011111111111111111111111111111111111111111111111111111
111111111111111111111111111111
1111111111111111111111110001111111111111111111111111111111111111111111
1111111111111111111111111111111111111111111111111111111111111111111111
1111111111110001111111111111111111111111111111111111111111111111111111
111111111111111111111111111111
1111111111111111111111111111111111111111111111111111111111111111110001
1111111111111111111111111111111111111001111001111111111111111111111111
1111111111111111111111111111111111111111111111111111111111100011000111
111111111111111111111111111111
1111111111111111111111111111111111111111111111111111111111111110001111
1111111111111111111111111111111111111100000011111111111111111111111111
1111111111111111111111111111111111000111111111111111111110001100011111
111111111111111111111111111111
1111111111111111111111111111111110001111111111111111111111111111111111
1111111111111111111111111100011111111111111111111111111111111111111001
1110011111111111111111111111111100011111111111000111111111111111111111
110011110011111111111111111111
1110000001111111111111111111111111100011111111110000011111111111111111
1111111100000110001111100011111111111111111111111111111111111111111100
0000111111111111111111111111100011111111111000111111111111111111111111
111000000111111111100001111111
1100111100111111111111111111111111111111111111111100011111111111111111
1111111111000000111111111111111111111111111111111111111111111111111111
1111111111111111111111111111100011111111111111111111111111111111111111
111111111111111111111111111111
1110000001111111110000001111111111111111111111111100010001111111111111
1111111111000111111111100000000111111111111111111111111111111111111100
0000001111111000000001111100000000001111100000000001111111111111111111
100000000001111100000000001111
1111111111111111111111100011111111111111111111111100000111111111111111
1111111111000111111110001111111111111111111111111111111111111111110001
1111111111100011111111111111100011111111111111100011111111111111111111
111111100011111111111100011111
1111111111111111100000000011111111111111111111111000011111111111111111
1111111111000111111111100000001111111111111111111111111111111111111100
0000011111111000000011111111100011111111111100011111111111111111111111
111100011111111111100011111111
1111111111111111000111100011111111111111111111111100011111111111111111
1111111111000111111111111111100011111111111111111111111111111111111111
1111000111111111111000111111100011111111100011111111111111111111111111
100011111111111100011111111111
1111111111111111100000010001111111111111111111100000000011111111111111
1111111000000000111111000000001111111111111111111111111111111111111000
0000011111110000000011111111110000001111100000000001111111111111111111
100000000001111100000000001111
1111111111111111111111000111111111111111111111111111111111111111111111
1111111111111111111111111111111111111111111111111111110001111111111111
1111111111111100011111111111111111111111111111111111111111111111111111
111111111111111111111111111111
1111111111111111111111110001111111111111111111111111111111111111111111
1111111111111111111111111111111111111111111111111111000111111111111111
1111111111110001111111111111111111111111111111111111111111111111111111
111111111111111111111111111111
1111100011111111111110001111111110000001111111100111100111111111111111
1111111100011111111111111110001111111111111111111111001111001111111111
1100011111111111111111111111111111111111110011110011111111111100011111
111100000111111110011110011111
1110001111111111111000111111111100111100111111110000001111111000111100
0111110001111111111111111000111111111111111111111111100000011111111111
0001111111111111111111111110001110001111111000000111111111110001111111
111001110011111111000000111111
1111111111111111111111111111111111111111111111111111111111111111111111
1111111111111111111111111111111111111111111111111111111111111111111111
1111111111111111111111111111111111111111111111111111111111111111111111
111111111111111111111111111111
0000000000111111111000011111111111000011111111111000011111111111000011
1111110001111111111111100000001111111100000001111111100000001111111000
0000001111110000000001111110000000001111110000000001111111000000011111
111000000011111000000000111111
0001111100001111110000001111111110000001111111110000001111111110000001
1111110001111111111110001111100011110001111100011110001111100011111000
1111111111110001111111111110001111111111110001111111111111110001111111
111110001111111000111110001111
0001111100011111100011000111111100011000111111100011000111111100011000
1111110001111111111100011111111111100011111111111100011111111111111000
1111111111110001111111111110001111111111110001111111111111110001111111
111110001111111000111111000111
0000000001111111000111100011111000111100011111000111100011111000111100
0111110001111111111100011111111111100011111111111100011111111111111000
0000001111110000000001111110000000001111110000000001111111110001111111
111110001111111000111111000111
0001111000111111000000000011111000000000011111000000000011111000000000
0111110001111111111100011111111111100011111111111100011111111111111000
1111111111110001111111111110001111111111110001111111111111110001111111
111110001111111000111111000111
0001111100011110001111110001110001111110001110001111110001110001111110
0011110001111111111110001111100011110001111100011110001111100011111000
1111111111110001111111111110001111111111110001111111111111110001111111
111110001111111000111110001111
0001111110001110001111110001110001111110001110001111110001110001111110
0011110000000000111111100000001111111100000001111111100000001111111000
0000001111110000000001111110000000001111110000000001111111000000011111
111000000011111000000000111111
1111111111111111111111111111111111111111111111111111111111111111111111
1111111111111111111111111111111111111111100111111111111111111111111111
1111111111111111000111111111111111111111111111111111111111111111111111
111111111111111111111111111111
1111111111111111111111111111111111111111111111111111111111111111111111
1111111111111111111111111111111111111100011111111111111111111111111111
1111111111111111110001111111111111111111111111111111111111111111111111
111111111111111111111111111111
1111111111111111111111000111111100111100111111111111000111111110000001
1111111110001100011111111111111111111111111111111111001111001111111110
0000111111111111000111111111100011000111111111111111111111111100011111
111111111111111111111111111111
1111111111111111111100011111111110000001111111111100011111111100111100
1111111000110001111110001111000111111111111111111111100000011111111100
1110011111111100011111111110001100011111100011110001111111110001111111
111111111111111111111111111111
1111111111111111111111111111111111111111111111111111111111111111111111
1111111111111111111111111111111111111111111111111111111111111111111110
0000111111111111111111111111111111111111111111111111111111111111111111
111111111111111111111111111111
0000000001111110001111110001110001111110001111110000001111111110000001
1111111100000011111111100000011111111001111001111100000000001111100011
1111000111000111111000111000111111000111000111111000111100011111000111
100000000000111111000000011111
1000111100011110000111110001110000111110001111000111100011111000111100
0111110001111000111110001111000111111100110011111100011111000011100011
1111000111000111111000111000111111000111000111111000111100011111000111
111110001111111100011111000111
1000111110001110000001110001110000001110001110001111110001110001111110
0011100011111100011100011111100011111110000111111100011111000111100011
1111000111000111111000111000111111000111000111111000111110001110001111
111110001111111000011111000111
0000001110001110001000110001110001000110001110001111110001110001111110
0011100011111100011100011111100011111110000111111100000000011111100011
1111000111000111111000111000111111000111000111111000111111100000111111
111110001111111100011000011111
1000111110001110001110000001110001110000001110001111110001110001111110
0011100011111100011100011111100011111100110011111100011110001111100011
1111000111000111111000111000111111000111000111111000111111110001111111
111110001111111100011111000111
1000111100011110001111000001110001111000001111000111100011111000111100
0111110001111000111110001111000111111001111001111100011111000111100011
1111000111000111111000111000111111000111000111111000111111110001111111
111110001111111100011111000111
0000000001111110001111110001110001111110001111110000001111111110000001
1111111100000011111111100000011111111111111111111100011111100011111000
0000011111110000000011111110000000011111110000000011111111110001111111
111110001111111000011000011111
1111111111111111111111111111111111111111111111111111111111111111111111
1111111111111111111111111111111111111111111111111111111111111111111111
1111111111111111111111111111111111111111111111111111111111111111111111
111111000111111111111111111111
1111111111111111111111111111111111111111111111111111111111111111111111
1111111111111111111111111111111111111111111111111111111111111111111111
1111111111111111111111111111111111111111111111111111111111111111111111
111100011111111111111111111111
1111111111111111111111111111111111111111111111111111111111111111111111
1111111111110001111111111111111111111111111111111111111111111111111111
1111111111111111111111111111111111111111111111111111111111111111111111
111111111111111111111111111111
1111111111111111111111111111111111111111111111111111111111111111111111
1111111111000111111111111111111111111111111111111111111111111111111111
1111111111111111111111111111111111111111111111111111111111111111111111
111111111111111111111111111111
1111110001111111111111000111111111000001111111100111100111111111111111
1111111111111111111111111110001111111111111111111111001111001111111111
1100011111111111111111111111111111111111110011110011111111111000111111
111000000111111111111111111111
1111000111111111111100011111111110011100111111110000001111111100011100
0111111100000111111111111000111111111111111111111111100000011111111111
0001111111111111111111111110001110001111111000000111111111100011111111
110011110011111111111111000001
1111111111111111111111111111111111111111111111111111111111111111111111
1111111111000111111111111111111111111111111111111111111111111111111111
1111111111111111111111111111111111111111111111111111111111111111111111
111111111111111111111111000011
0000100000011111110000001111111110000001111111110000001111111110000001
1111111111000111111111100000001111111100000001111111100000001111111100
0000011111111000000011111111000000011111111000000011111111000001111111
111000001111111111000001000111
1100001110001111111111100011111111111100011111111111100011111111111100
0111111111000111111110001111100011110001111100011110001111100011110001
1111000111100011111000111100011111000111100011111000111111110001111111
111110001111111100011110000111
1100011111111111100000000011111100000000011111100000000011111100000000
0111111111000111111100011111111111100011111111111100011111111111100000
0000000111000000000000111000000000000111000000000000111111110001111111
111110001111111000111111000111
1100011111111111000111100011111000111100011111000111100011111000111100
0111111111000111111110001111100011110001111100011110001111100011110001
1111111111100011111111111100011111111111100011111111111111110001111111
111110001111111100011110000111
0000000111111111100000010001111100000010001111100000010001111100000010
0011111000000000111111100000001111111100000001111111100000001111111100
0000001111111000000001111111000000001111111000000001111110000000001111
110000000001111111000001000111
1111111111111111111111111111111111111111111111111111111111111111111111
1111111111111111111111111111111111111111001111111111111111111111111111
1111111111111111000111111111111111111111111111111111111111111111111111
111111111111111111111111111111
1111111111111111111111111111111111111111111111111111111111111111111111
1111111111111111111111111111111111111000111111111111111111111111111111
1111111111111111110001111111111111111111111111111111111111111111111111
111111111111111111111111111111
1111111111111111111111111111111111111111111111111111111111111111111111
1111111111111111111111111111111111111111111111111111111111111111111111
1111111111111111111111111111111111111111111111111111111111111111111111
111111111111111111111111111111
1111111001111111111111111111111111111111111111111111111111111111111111
1111111111111111111111111111111111111111111111111111111111111111111110
0000111111111111111111111111111111111111111111111111111111111111111111
111111111111111111111111111111
1100000011111111111111000111111100111100111111111111000111111110000001
1111111110001100011111111111111111111111111111111111001111001111111100
1110011111111111000111111111100011000111111111111111111111111100011111
111111111111111111111111111111
1111100000111111111100011111111110000001111111111100011111111100111100
1111111000110001111110001111000111111111000111111111100000011111111110
0000111111111100011111111110001100011111100011110001111111110001111111
111100011111111111110001111111
1111001110011111111111111111111111111111111111111111111111111111111111
1111111111111111111111111111111111111111000111111111111111111111111111
1111111111111111111111111111111111111111111111111111111111111111111111
111100011111111111111111111111
1110000000001110001000000011110001000000111111110000001111111110000001
1111111100000011111111100000011111111111111111111100001000000111100011
1111000111000111111000111000111111000111000111111000111000111111000111
100000000001111111111111111111
1000111110001110000111110001110000111110001111000111100011111000111100
0111110001111000111110001111000111110000000000011111000011100011100011
1111000111000111111000111000111111000111000111111000111100011110001111
111100011111111111111111111111
0001111111001110001111110001110001111110001110001111110001110001111110
0011100011111100011100011111100011111111111111111111000111111111100011
1111000111000111111000111000111111000111000111111000111110001100011111
111100011111111111111111111111
1000111110001110001111110001110001111110001111000111100011111000111100
0111110001111000111110001111000111111111000111111111000111111111100001
1110000111000011110000111000011110000111000011110000111111001000111111
111100011111111111111111111111
1110000000111110001111110001110001111110001111110000001111111110000001
1111111100000011111111100000011111111111000111111100000001111111111000
0001000111110000001000111110000001000111110000001000111111100001111111
111110000001111111111111111111
1111111111111111111111111111111111111111111111111111111111111111111111
1111111111111111111111111111111111111111111111111111111111111111111111
1111111111111111111111111111111111111111111111111111111111100011111111
111111000111111111111111111111
1111111111111111111111111111111111111111111111111111111111111111111111
1111111111111111111111111111111111111111111111111111111111111111111111
1111111111111111111111111111111111111111111111111111111100001111111111
111100011111111111111111111111
