P1
240 72
1111111111111111111111111111111111111111111111111111111111111111111111
1111111111111111111111111111111111111111111111111111111111111111111111
1111111111111111111111111111111111111111111111111111111111111111111111
111111111111111111111111111111
1000011111111111111111111111111111111111111111111111111111111111111111
1111111111111111111111111111111111111111111111111110001111000111111111
1111111111111111111111111111111111111111111111111111111111111111111111
111111111111111111000000111111
0011001111111111111111111111111111100111111111111111111111111111111111
1111111111111111111111111000111111111111111111111111111111111111111111
0000111111111000000111111111111111111111111111111111111111111111111111
110000000011111111111111111111
0000001111111111111111111111111111100111111111111000000111111111111111
1111110000111000011111111000111111111100000000111111111111111111111011
1111011111111111110011111111111111111111111111111111111111111111111111
101111111101111111111111111111
0011001111111111111100011111111110000000111111100011110011111001111110
0111111000111000111111111000111111110001111111111111111111111111110011
0001001111111000000011111111111111111111111111111111111111111111111111
001000001100111111111111111111
0011001111111111111111111111111000111110001111100011111111111100000011
1111111100010001111111111000111111111100000011111111111111111111110010
0111001111110011110011111111000110001111000000000000111111111111111111
001001100100111111111111111111
1111111000011111111100011111110001111111111110000000111111111001111110
0111111000000000111111111111111111111001111000111111111111111111110010
0111001111111000000011111100011000111111111111111000111110000000011111
001000001100111111111111111111
1111110011001111111100011111111000111110001111100011111111111001111110
0111111111000111111111111000111111111000111100111111111111111111110010
0111001111111111111111111001110011111111111111111000111111111111111111
001001100100111111111111111111
1111110011001111111100011111111110000000111111100011111001111100000011
1111111000000000111111111000111111111110000001111111111111111111110011
0001001111110000000011111100011000111111111111111111111111111111111111
001001100100111111111111111111
1111110011001111111100011111111111100111111110001100000011111001111110
0111111111000111111111111000111111111111111100011111111111111111111011
1111011111111111111111111111000110001111111111111111111111111111111111
101111111101111111111111111111
1111111000011111111100011111111111100111111111111111111111111111111111
1111111111111111111111111000111111111000000001111111111111111111111111
0000111111111111111111111111111111111111111111111111111111111111111111
110000000011111111111111111111
1111111111111111111111111111111111111111111111111111111111111111111111
1111111111111111111111111111111111111111111111111111111111111111111111
1111111111111111111111111111111111111111111111111111111111111111111111
111111111111111111111111111111
1111111111111111111111111111111111111111111111111111111111111111110001
1111111111111111111111111111111111111111111111111111111111111111111111
1111111111111111111111111111111111111111111111111111111111111111111111
111111111111111111111111111111
1111111111111111111111111111111111111111111111111111111111111110001111
1111111111111111111111111111111111111111111111111111111111111111111111
1111111111111111111111111111111111111111111111111111111111111111111111
111111111111111111111111111111
1111111111111111111111111111111110000011111111110000011111111111111111
1111111111111111111111110000000011111111111111111111111111111111111111
0011111111111000000111111111111111111111100111111111111100111111111111
000011111111111111111111111111
1110000001111111111100011111111111111001111111111111001111111111111111
1111111111111111111111000001100111111111111111111111111111111111111110
0011111111110011110011111111111111111111000111100111111000111100111111
111001100111111111111111111111
1100111100111111111100011111111111100111111111111000011111111111111111
1111111111111111111110000001100111111111111111111111111111111111111111
0011111111110011110011111111111111111111100111001111111100111001111111
000011001111111111110001111111
1110000001111111000000000001111110011111111111111111001111111111111111
1111111000111000111110000001100111111111111111111111111111111111111111
0011111111110011110011111100011000111111100110011111111100110011111111
111000011111111111111111111111
1111111111111111111100011111111110000001111111110000011111111111111111
1111111000111000111111000001100111111110000111111111111111111111111111
0011111111111000000111111111000110001111100100110001111100100100011111
000000110001111111110001111111
1111111111111111111100011111111111111111111111111111111111111111111111
1111110001110001111111110001100111111111111111111111111111111111111111
1111111111111111111111111111110011100111111001101001111111001111001111
111001101001111111000111111111
1111111111111111111111111111111111111111111111111111111111111111111111
1111110001110001111111111001100111111111111111111111111111111111111111
1111111111110000000011111111000110001111110011011001111110011110011111
110011011001111100011111111111
1111111111111111000000000001111111111111111111111111111111111111111111
1111100100001000011111111001100111111111111111111111111111111111111111
1111111111111111111111111100011000111111100110000000111100111100111111
100110000000111100011110001111
1111111111111111111111111111111111111111111111111111111111111111111111
1111100111111111111111111001100111111111111111111111110001111111111111
1111111111111111111111111111111111111111111111111001111111111000001111
111111111101111110000000111111
1111111111111111111111111111111111111111111111111111111111111111111111
1111111111111111111111111111111111111111111111111111000111111111111111
1111111111111111111111111111111111111111111111111111111111111111111111
111111111111111111111111111111
1110001111111111111110001111111110000001111111110000111001111111111111
1111111110000111111111111111111111111111111111111111110001111111111111
1100011111111100000111111111111111111111111000111111111111111100011111
111100000111111111111111111111
1111100011111111111000111111111100111100111111001110000111111000111111
0111111100110011111111111111111111111111111111111111111100011111111111
0001111111111001110011111110001110001111111110001111111111110001111111
111001110011111110001110001111
1111111111111111111111111111111111111111111111111111111111111111111111
1111111110000111111111111111111111111111111111111111111111111111111111
1111111111111111111111111111111111111111111111111111111111111111111111
111111111111111111111111111111
1111000011111111111000011111111111000011111111111000011111111111000011
1111111110000111111111100000000011111100000001111111000000000111111011
0000001111110000000001111110000000001111111000000011111111000000011111
111000000011111111000000011111
1110000001111111110000001111111110000001111111110000001111111110000001
1111111100000011111111001100011111110001111100011111000111111111111011
1111111111110001111111111110001111111111111110001111111111110001111111
111110001111111111110001111111
1100011000111111100011000111111100011000111111100011000111111100011011
1111111000110001111110001100011111100011111111111111000111111111111011
1111111111110001111111111110001111111111111110001111111111110001111111
111110001111111111110001111111
1000111100011111000111100011111000111100011111000111100011111000111111
0111110001111000111110001100000011100011111111111111000000000111111011
0000001111110000000001111110000000001111111110001111111111110001111111
111110001111111111110001111111
1000000000011111000000000011111000000000011111000000000011111000000011
0111110000000000111100000000011111100011111111111111000111111111111011
1111111111110001111111111110001111111111111110001111111111110001111111
111110001111111111110001111111
0001111110001110001111110001110001111110001110001111110001110001111110
0011100011111100011100011100011111110001111100011111000111111111111011
1111111111110001111111111110001111111111111110001111111111110001111111
111110001111111111110001111111
0001111110001110001111110001110001111110001110001111110001110001111110
0011100011111100011100011100000011111100000001111111000000000111111011
0000001111110000000001111110000000001111111000000011111111000000011111
111000000011111111000000011111
1111111111111111111111111111111111111111111111111111111111111111111111
1111111111111111111111111111111111111111100111111111111111111111111111
1111111111111111111111111111111111111111111111111111111111111111111111
111111111111111111111111111111
1111111111111111111111111111111111111111111111111111111111111111111111
1111111111111111111111111111111111111100011111111111111111111111111111
1111111111111111111111111111111111111111111111111111111111111111111111
111111111111111111111111111111
1111111111111111110000111001111110001111111111111111000111111110000001
1111111100001110011111111111111111111111111111111111111111111111111111
0111111111111111000111111111000000111111111111111111111111111100011111
111111111111111111111111111111
1111111111111111001110000111111111100011111111111100011111111100111111
1111110011100001111110001111000111111111111111111111111111111111111111
0001111111111100011111111110011110011111100011110001111111110001111111
111111111111111111111111111111
1111111111111111111111111111111111111111111111111111111111111111111111
1111111111111111111111111111111111111111111111111111111111100111111111
1111111111111111111111111111111111111111111111111111111111111111111111
111111111111111111111111111111
0000000001111110001111110001111110000001111111110000001111111110000001
1111111100000011111111100000011111111001111001111111100000000111100011
1111000111000111111000111000111111000111000111111000111100011111000111
000011111111111111000000011111
1000111100011110000111110001111000111100011111000111100011111000111111
0111110001111000111110001111000111111100110011111110001110000111100011
1111000111000111111000111000111111000111000111111000111100011111000111
100000000111111100011111000111
1000111110001110000001110001110001111110001110001111110001110001111110
0011100011111100011100011111100011111110000111111100011100100011100011
1111000111000111111000111000111111000111000111111000111110001110001111
100011110001111000011111000111
0000001110001110001000110001110001111110001110001111110001110001111110
0011100011111100011100011111100011111110000111111100011001100011100011
1111000111000111111000111000111111000111000111111000111111100000111111
100011111000111100011000011111
1000111110001110001110000001110001111110001110001111110001110001111110
0011100011111100011100011111100011111100110011111100010011100011100011
1111000111000111111000111000111111000111000111111000111111110001111111
100011110001111100011111000111
1000111100011110001111000001111000111100011111000111100011111000111111
0111110001111000111110001111000111111001111001111110000111000111100011
1111000111000111111000111000111111000111000111111000111111110001111111
100000000111111100011111000111
0000000001111110001111110001111110000001111111110000001111111110000001
1111111100000011111111100000011111111111111111111110000000011111111011
0000011111110000000011111110000000011111110000000011111111110001111111
000011111111111000011000011111
1111111111111111111111111111111111111111111111111111111111111111111111
1111111111111111111111111111111111111111111111111110011111111111111111
1111111111111111111111111111111111111111111111111111111111111111111111
111111111111111111111111111111
1111111111111111111111111111111111111111111111111111111111111111111111
1111111111111111111111111111111111111111111111111111111111111111111111
1111111111111111111111111111111111111111111111111111111111111111111111
111111111111111111111111111111
1111111111111111111111111111111111111111111111111111111111111111111111
1111111111111111111111111111111111111111111111111111111111111111111111
1111111111111111111111111111111111111111111111111111111111111111111111
111111111111111111111111111111
1111111111111111111111111111111111111111111111111111111111111111111111
1111111110000011111111111111111111111111111111111111111111111111111111
1111111111111111111111111111111111111111111111111111111111111111111111
111111111111111111111111111111
1111000111111111111111000111111111000001111111110000111001111111111111
1111111100111001111111111111111111111111111111111111100011111111111111
1100011111111000000011111111111111111111111000111111111111111000111111
111000000111111111111111111111
1111110001111111111100011111111110011100111111001110000111111100011111
0111111110000011111111111111111111111111111111111111111000111111111111
0001111111110011111001111110001110001111111110001111111111100011111111
110011110011111110001100011111
1111111111111111111111111111111111111111111111111111111111111111111111
1111111111111111111111111111111111111111111111111111111111111111111111
1111111111111111111111111111111111111111111111111111111111111111111111
111111111111111111111111111111
1110000001111111110000001111111110000001111111110000001111111110000001
1111111100000011111111000010000111111100000001111111100000001111111111
0000011111111000000011111111000000011111111000001111111111000001111111
111000001111111111000001111111
1111111100011111111111100011111111111100011111111111100011111111111111
0111111111111000111111111000110011110001111100011110001111100011110001
1111000111100011111000111100011111000111111110001111111111110001111111
111110001111111111110001111111
1100000000011111100000000011111100000000011111100000000011111100000011
0111111000000000111110000000000011100011111111111100000000000011100011
0000000111000000000000111000000000000111111110001111111111110001111111
111110001111111111110001111111
1000111100011111000111100011111000111100011111000111100011111000111111
0111110001111000111100011000111111110001111100011110001111111111110001
1111111111100011111111111100011111111111111110001111111111110001111111
111110001111111111110001111111
1100000010001111100000010001111100000010001111100000010001111100000010
0011111000000100011110000010000011111100000001111111100000000111111111
0000001111111000000001111111000000001111110000000001111110000000001111
110000000001111110000000001111
1111111111111111111111111111111111111111111111111111111111111111111111
1111111111111111111111111111111111111111001111111111111111111111111111
1111111111111111111111111111111111111111111111111111111111111111111111
111111111111111111111111111111
1111111111111111111111111111111111111111111111111111111111111111111111
1111111111111111111111111111111111111000111111111111111111111111111111
1111111111111111111111111111111111111111111111111111111111111111111111
111111111111111111111111111111
1111111111111111111111111111111111111111111111111111111111111111111111
1111111111111111111111111111111111111111111111111111111111111111111111
1111111111111111111111111111111111111111111111111111111111111111111111
111111111111111111111111111111
1111111001111111111111111111111111111111111111111111111111111111111111
1111111111111111111111111111111111111111111111111111111111111111111111
1111111111111111111111111111111111111111111111111111111111111111111111
111111111111111111111111111111
1100000011111111110000111001111110001111111111111111000111111110000001
1111111100001110011111111111111111111111111111111111111111111111111111
0111111111111111000111111111000000111111111111111111111111111100011111
111111111111111111111111111111
1111100000111111001110000111111111100011111111111100011111111100111111
1111110011100001111110001111000111111111000111111111111111111111111111
0001111111111100011111111110011110011111100011110001111111110001111111
000111111111111100011100011111
1111001110011111111111111111111111111111111111111111111111111111111111
1111111111111111111111111111111111111111000111111111111111100111111111
1111111111111111111111111111111111111111111111111111111111111111111111
000111111111111111111111111111
1110000000001110001000000011111110000001111111110000001111111110000001
1111111100000011111111100000011111111111111111111111100000000111100011
1111000111000111111000111000111111000111000111111000111000111111000111
000000000111111000111110001111
1000111110001110000111110001111000111100011111000111100011111000111111
0111110001111000111110001111000111110000000000011110001110000111100011
1111000111000111111000111000111111000111000111111000111100011110001111
000111110001111100011100011111
0001111111001110001111110001110001111110001110001111110001110001111110
0011100011111100011100011111100011111111111111111100011001100011100011
1111000111000111111000111000111111000111000111111000111110001100011111
000111111000111110001000111111
1000111110001110001111110001111000111100011111000111100011111000111111
0111110001111000111110001111000111111111000111111110000111000111100001
1110000111000011110000111000011110000111000011110000111111001000111111
000111110001111111000001111111
1110000000111110001111110001111110000001111111110000001111111110000001
1111111100000011111111100000011111111111000111111110000000011111111011
0001000111110000001000111110000001000111110000001000111111100001111111
000000000111111111100011111111
1111111111111111111111111111111111111111111111111111111111111111111111
1111111111111111111111111111111111111111111111111110011111111111111111
1111111111111111111111111111111111111111111111111111111111100011111111
000111111111111111000111111111
1111111111111111111111111111111111111111111111111111111111111111111111
1111111111111111111111111111111111111111111111111111111111111111111111
1111111111111111111111111111111111111111111111111111111100001111111111
000111111111111000011111111111
